<?xml version="1.0" standalone="no"?>
<!DOCTYPE svg PUBLIC "-//W3C//DTD SVG 20010904//EN"
 "http://www.w3.org/TR/2001/REC-SVG-20010904/DTD/svg10.dtd">
<svg version="1.0" xmlns="http://www.w3.org/2000/svg"
 width="207.000000pt" height="207.000000pt" viewBox="0 0 207.000000 207.000000"
 preserveAspectRatio="xMidYMid meet">
<metadata>
Created by potrace 1.11, written by Peter Selinger 2001-2013
</metadata>
<g transform="translate(0.000000,207.000000) scale(0.100000,-0.100000)"
fill="#000000" stroke="none">
<path d="M720 2044 c-39 -16 -80 -69 -80 -103 0 -12 -17 -38 -39 -60 -51 -50
-87 -153 -72 -207 6 -20 20 -47 32 -60 19 -21 20 -24 6 -24 -25 0 -44 -45 -27
-65 7 -8 18 -15 24 -15 7 0 10 -22 8 -68 l-4 -69 -76 0 c-142 0 -218 -27 -292
-102 -74 -76 -82 -112 -83 -365 0 -272 6 -297 85 -382 61 -65 140 -96 257 -99
53 -2 99 -3 104 -4 4 -1 7 -47 7 -104 l0 -103 -30 -11 c-76 -29 -57 -181 24
-184 26 -1 1033 -1 1102 0 70 1 94 25 94 92 0 40 -5 55 -25 74 -13 14 -30 25
-38 25 -11 0 -14 79 -14 485 0 267 4 485 8 485 4 0 19 -4 32 -9 37 -14 109 24
121 64 14 47 29 78 47 100 10 11 20 32 23 47 2 14 9 35 14 45 6 10 8 35 6 55
-3 19 1 51 9 69 18 45 13 96 -13 131 -12 16 -20 36 -19 46 5 40 -13 70 -57 94
-24 12 -44 30 -44 39 0 18 -56 72 -90 85 -14 6 -47 9 -75 8 -27 -1 -65 4 -85
11 -19 7 -52 10 -73 8 -30 -3 -45 2 -75 26 -49 40 -108 49 -167 26 -25 -9 -51
-25 -58 -36 -13 -18 -15 -18 -48 -2 -41 21 -133 25 -174 9 -26 -11 -32 -10
-50 9 -49 53 -126 68 -195 39z m-177 -823 l27 -1 0 -319 c0 -246 -3 -320 -12
-323 -7 -3 -47 -4 -89 -3 -87 3 -127 20 -161 67 -22 32 -23 41 -25 238 -2 228
6 274 57 310 27 19 113 38 155 34 11 -1 32 -3 48 -3z"/>
</g>
</svg>
